<svg version="1.1" xmlns="http://www.w3.org/2000/svg" viewBox="0 0 922.673828125 1039.5" width="922.673828125" height="1039.5">
  <!-- svg-source:excalidraw -->
  
  <defs>
    <style class="style-fonts">
      @font-face {
        font-family: "Virgil";
        src: url("https://unpkg.com/@excalidraw/excalidraw@undefined/dist/excalidraw-assets/Virgil.woff2");
      }
      @font-face {
        font-family: "Cascadia";
        src: url("https://unpkg.com/@excalidraw/excalidraw@undefined/dist/excalidraw-assets/Cascadia.woff2");
      }
      @font-face {
        font-family: "Assistant";
        src: url("https://unpkg.com/@excalidraw/excalidraw@undefined/dist/excalidraw-assets/Assistant-Regular.woff2");
      }
    </style>
    
  </defs>
  <g stroke-linecap="round" transform="translate(336.9609375 112.5) rotate(0 78.2734375 26.25)"><path d="M0 0 L156.55 0 L156.55 52.5 L0 52.5" stroke="none" stroke-width="0" fill="#b2f2bb"></path><path d="M0 0 C59.62 0, 119.24 0, 156.55 0 M0 0 C34.63 0, 69.25 0, 156.55 0 M156.55 0 C156.55 16.33, 156.55 32.66, 156.55 52.5 M156.55 0 C156.55 19.61, 156.55 39.22, 156.55 52.5 M156.55 52.5 C114.39 52.5, 72.24 52.5, 0 52.5 M156.55 52.5 C105.67 52.5, 54.8 52.5, 0 52.5 M0 52.5 C0 37.56, 0 22.62, 0 0 M0 52.5 C0 34.11, 0 15.72, 0 0" stroke="#1e1e1e" stroke-width="2" fill="none"></path></g><g stroke-linecap="round" transform="translate(163.46875 10) rotate(0 111.3984375 26.25)"><path d="M0 0 L222.8 0 L222.8 52.5 L0 52.5" stroke="none" stroke-width="0" fill="#b2f2bb"></path><path d="M0 0 C68.39 0, 136.78 0, 222.8 0 M0 0 C76.35 0, 152.7 0, 222.8 0 M222.8 0 C222.8 16.9, 222.8 33.81, 222.8 52.5 M222.8 0 C222.8 15.47, 222.8 30.95, 222.8 52.5 M222.8 52.5 C166.18 52.5, 109.56 52.5, 0 52.5 M222.8 52.5 C142.9 52.5, 63 52.5, 0 52.5 M0 52.5 C0 36.39, 0 20.27, 0 0 M0 52.5 C0 35.78, 0 19.06, 0 0" stroke="#1e1e1e" stroke-width="2" fill="none"></path></g><g stroke-linecap="round" transform="translate(436.265625 10) rotate(0 119.3359375 26.25)"><path d="M0 0 L238.67 0 L238.67 52.5 L0 52.5" stroke="none" stroke-width="0" fill="#b2f2bb"></path><path d="M0 0 C88.1 0, 176.2 0, 238.67 0 M0 0 C92.71 0, 185.41 0, 238.67 0 M238.67 0 C238.67 20.04, 238.67 40.08, 238.67 52.5 M238.67 0 C238.67 17.33, 238.67 34.66, 238.67 52.5 M238.67 52.5 C184.17 52.5, 129.66 52.5, 0 52.5 M238.67 52.5 C163.02 52.5, 87.37 52.5, 0 52.5 M0 52.5 C0 41.32, 0 30.15, 0 0 M0 52.5 C0 35.24, 0 17.99, 0 0" stroke="#1e1e1e" stroke-width="2" fill="none"></path></g><g stroke-linecap="round" transform="translate(333.2421875 215) rotate(0 81.9921875 26.25)"><path d="M0 0 L163.98 0 L163.98 52.5 L0 52.5" stroke="none" stroke-width="0" fill="#E57373"></path><path d="M0 0 C49.65 0, 99.29 0, 163.98 0 M0 0 C41.12 0, 82.24 0, 163.98 0 M163.98 0 C163.98 16.4, 163.98 32.79, 163.98 52.5 M163.98 0 C163.98 12.41, 163.98 24.82, 163.98 52.5 M163.98 52.5 C124.39 52.5, 84.8 52.5, 0 52.5 M163.98 52.5 C125.99 52.5, 88 52.5, 0 52.5 M0 52.5 C0 37.98, 0 23.45, 0 0 M0 52.5 C0 35.01, 0 17.52, 0 0" stroke="#1e1e1e" stroke-width="2" fill="none"></path></g><g stroke-linecap="round" transform="translate(115.6953125 317.5) rotate(0 137.265625 26.25)"><path d="M0 0 L274.53 0 L274.53 52.5 L0 52.5" stroke="none" stroke-width="0" fill="#ffec99"></path><path d="M0 0 C84.09 0, 168.17 0, 274.53 0 M0 0 C98.63 0, 197.26 0, 274.53 0 M274.53 0 C274.53 16.72, 274.53 33.43, 274.53 52.5 M274.53 0 C274.53 14.74, 274.53 29.49, 274.53 52.5 M274.53 52.5 C186.64 52.5, 98.75 52.5, 0 52.5 M274.53 52.5 C171.06 52.5, 67.58 52.5, 0 52.5 M0 52.5 C0 36.78, 0 21.06, 0 0 M0 52.5 C0 32.93, 0 13.36, 0 0" stroke="#1e1e1e" stroke-width="2" fill="none"></path></g><g stroke-linecap="round" transform="translate(29.71875 420) rotate(0 84.2578125 26.25)"><path d="M0 0 L168.52 0 L168.52 52.5 L0 52.5" stroke="none" stroke-width="0" fill="#ffec99"></path><path d="M0 0 C54.79 0, 109.58 0, 168.52 0 M0 0 C60.09 0, 120.18 0, 168.52 0 M168.52 0 C168.52 19.53, 168.52 39.07, 168.52 52.5 M168.52 0 C168.52 14.66, 168.52 29.32, 168.52 52.5 M168.52 52.5 C131.27 52.5, 94.02 52.5, 0 52.5 M168.52 52.5 C114.34 52.5, 60.16 52.5, 0 52.5 M0 52.5 C0 32.42, 0 12.35, 0 0 M0 52.5 C0 36.68, 0 20.86, 0 0" stroke="#1e1e1e" stroke-width="2" fill="none"></path></g><g stroke-linecap="round" transform="translate(12.8046875 522.5) rotate(0 101.171875 26.25)"><path d="M0 0 L202.34 0 L202.34 52.5 L0 52.5" stroke="none" stroke-width="0" fill="#ffec99"></path><path d="M0 0 C47.07 0, 94.15 0, 202.34 0 M0 0 C57.74 0, 115.48 0, 202.34 0 M202.34 0 C202.34 16.74, 202.34 33.49, 202.34 52.5 M202.34 0 C202.34 14.41, 202.34 28.82, 202.34 52.5 M202.34 52.5 C138.49 52.5, 74.63 52.5, 0 52.5 M202.34 52.5 C124.41 52.5, 46.48 52.5, 0 52.5 M0 52.5 C0 41.79, 0 31.08, 0 0 M0 52.5 C0 40.49, 0 28.47, 0 0" stroke="#1e1e1e" stroke-width="2" fill="none"></path></g><g stroke-linecap="round" transform="translate(10 625) rotate(0 103.9765625 26.25)"><path d="M0 0 L207.95 0 L207.95 52.5 L0 52.5" stroke="none" stroke-width="0" fill="#ffec99"></path><path d="M0 0 C46 0, 91.99 0, 207.95 0 M0 0 C64.69 0, 129.37 0, 207.95 0 M207.95 0 C207.95 19.61, 207.95 39.22, 207.95 52.5 M207.95 0 C207.95 14.14, 207.95 28.27, 207.95 52.5 M207.95 52.5 C140.37 52.5, 72.8 52.5, 0 52.5 M207.95 52.5 C148.77 52.5, 89.59 52.5, 0 52.5 M0 52.5 C0 34.11, 0 15.72, 0 0 M0 52.5 C0 41.69, 0 30.88, 0 0" stroke="#1e1e1e" stroke-width="2" fill="none"></path></g><g stroke-linecap="round" transform="translate(440.2265625 318.5) rotate(0 137.28125 26.25)"><path d="M0 0 L274.56 0 L274.56 52.5 L0 52.5" stroke="none" stroke-width="0" fill="#E57373"></path><path d="M0 0 C94.09 0, 188.18 0, 274.56 0 M0 0 C88.4 0, 176.8 0, 274.56 0 M274.56 0 C274.56 15.47, 274.56 30.95, 274.56 52.5 M274.56 0 C274.56 13.34, 274.56 26.68, 274.56 52.5 M274.56 52.5 C176.1 52.5, 77.64 52.5, 0 52.5 M274.56 52.5 C190.3 52.5, 106.03 52.5, 0 52.5 M0 52.5 C0 35.78, 0 19.06, 0 0 M0 52.5 C0 41.02, 0 29.54, 0 0" stroke="#1e1e1e" stroke-width="2" fill="none"></path></g><g stroke-linecap="round" transform="translate(562.4375 427) rotate(0 97.796875 26.25)"><path d="M0 0 L195.59 0 L195.59 52.5 L0 52.5" stroke="none" stroke-width="0" fill="#E57373"></path><path d="M0 0 C75.97 0, 151.95 0, 195.59 0 M0 0 C74.66 0, 149.32 0, 195.59 0 M195.59 0 C195.59 17.33, 195.59 34.66, 195.59 52.5 M195.59 0 C195.59 11.99, 195.59 23.98, 195.59 52.5 M195.59 52.5 C133.6 52.5, 71.6 52.5, 0 52.5 M195.59 52.5 C153.95 52.5, 112.31 52.5, 0 52.5 M0 52.5 C0 35.24, 0 17.99, 0 0 M0 52.5 C0 40.71, 0 28.92, 0 0" stroke="#1e1e1e" stroke-width="2" fill="none"></path></g><g stroke-linecap="round" transform="translate(559.046875 528.5) rotate(0 101.1875 26.25)"><path d="M0 0 L202.38 0 L202.38 52.5 L0 52.5" stroke="none" stroke-width="0" fill="#E57373"></path><path d="M0 0 C50.75 0, 101.49 0, 202.38 0 M0 0 C63.21 0, 126.41 0, 202.38 0 M202.38 0 C202.38 12.41, 202.38 24.82, 202.38 52.5 M202.38 0 C202.38 12.68, 202.38 25.35, 202.38 52.5 M202.38 52.5 C155.49 52.5, 108.6 52.5, 0 52.5 M202.38 52.5 C146.39 52.5, 90.4 52.5, 0 52.5 M0 52.5 C0 35.01, 0 17.52, 0 0 M0 52.5 C0 40.75, 0 29.01, 0 0" stroke="#1e1e1e" stroke-width="2" fill="none"></path></g><g stroke-linecap="round" transform="translate(556.2421875 631) rotate(0 103.9921875 26.25)"><path d="M0 0 L207.98 0 L207.98 52.5 L0 52.5" stroke="none" stroke-width="0" fill="#E57373"></path><path d="M0 0 C74.72 0, 149.45 0, 207.98 0 M0 0 C66.22 0, 132.44 0, 207.98 0 M207.98 0 C207.98 14.74, 207.98 29.49, 207.98 52.5 M207.98 0 C207.98 16.81, 207.98 33.62, 207.98 52.5 M207.98 52.5 C129.59 52.5, 51.2 52.5, 0 52.5 M207.98 52.5 C145.71 52.5, 83.43 52.5, 0 52.5 M0 52.5 C0 32.93, 0 13.36, 0 0 M0 52.5 C0 37, 0 21.5, 0 0" stroke="#1e1e1e" stroke-width="2" fill="none"></path></g><g stroke-linecap="round" transform="translate(299.37109375 713) rotate(0 108.2890625 26.25)"><path d="M0 0 L216.58 0 L216.58 52.5 L0 52.5" stroke="none" stroke-width="0" fill="#7986CB"></path><path d="M0 0 C77.23 0, 154.46 0, 216.58 0 M0 0 C80.58 0, 161.15 0, 216.58 0 M216.58 0 C216.58 14.66, 216.58 29.32, 216.58 52.5 M216.58 0 C216.58 11.6, 216.58 23.21, 216.58 52.5 M216.58 52.5 C146.95 52.5, 77.31 52.5, 0 52.5 M216.58 52.5 C133.76 52.5, 50.93 52.5, 0 52.5 M0 52.5 C0 36.68, 0 20.86, 0 0 M0 52.5 C0 33.07, 0 13.64, 0 0" stroke="#1e1e1e" stroke-width="2" fill="none"></path></g><g stroke-linecap="round" transform="translate(323.86328125 795) rotate(0 86.796875 26.25)"><path d="M0 0 L173.59 0 L173.59 52.5 L0 52.5" stroke="none" stroke-width="0" fill="#7986CB"></path><path d="M0 0 C54 0, 108 0, 173.59 0 M0 0 C64.83 0, 129.67 0, 173.59 0 M173.59 0 C173.59 14.14, 173.59 28.27, 173.59 52.5 M173.59 0 C173.59 17.06, 173.59 34.12, 173.59 52.5 M173.59 52.5 C124.19 52.5, 74.79 52.5, 0 52.5 M173.59 52.5 C112.78 52.5, 51.98 52.5, 0 52.5 M0 52.5 C0 41.69, 0 30.88, 0 0 M0 52.5 C0 41.36, 0 30.23, 0 0" stroke="#1e1e1e" stroke-width="2" fill="none"></path></g><g stroke-linecap="round" transform="translate(239.97265625 884.5) rotate(0 171.6875 26.25)"><path d="M0 0 L343.38 0 L343.38 52.5 L0 52.5" stroke="none" stroke-width="0" fill="#7986CB"></path><path d="M0 0 C110.56 0, 221.11 0, 343.38 0 M0 0 C101.2 0, 202.41 0, 343.38 0 M343.38 0 C343.38 13.34, 343.38 26.68, 343.38 52.5 M343.38 0 C343.38 18.83, 343.38 37.65, 343.38 52.5 M343.38 52.5 C237.99 52.5, 132.61 52.5, 0 52.5 M343.38 52.5 C234.01 52.5, 124.64 52.5, 0 52.5 M0 52.5 C0 41.02, 0 29.54, 0 0 M0 52.5 C0 39.85, 0 27.2, 0 0" stroke="#1e1e1e" stroke-width="2" fill="none"></path></g><g stroke-linecap="round" transform="translate(340.70703125 977) rotate(0 69.953125 26.25)"><path d="M0 0 L139.91 0 L139.91 52.5 L0 52.5" stroke="none" stroke-width="0" fill="#7986CB"></path><path d="M0 0 C53.4 0, 106.81 0, 139.91 0 M0 0 C46.18 0, 92.36 0, 139.91 0 M139.91 0 C139.91 11.99, 139.91 23.98, 139.91 52.5 M139.91 0 C139.91 16.64, 139.91 33.28, 139.91 52.5 M139.91 52.5 C110.12 52.5, 80.34 52.5, 0 52.5 M139.91 52.5 C93.92 52.5, 47.93 52.5, 0 52.5 M0 52.5 C0 40.71, 0 28.92, 0 0 M0 52.5 C0 41.09, 0 29.69, 0 0" stroke="#1e1e1e" stroke-width="2" fill="none"></path></g><g stroke-linecap="round"><g transform="translate(275.367 63) rotate(0 33.73599999999999 24.5)"><path d="M0 0 C11.25 8.17, 56.23 40.83, 67.47 49 M0 0 C11.25 8.17, 56.23 40.83, 67.47 49" stroke="black" stroke-width="2" fill="none"></path></g><g transform="translate(275.367 63) rotate(0 33.73599999999999 24.5)"><path d="M38.63 40.74 C47.64 43.32, 56.65 45.9, 67.47 49 M38.63 40.74 C45.45 42.69, 52.27 44.64, 67.47 49" stroke="black" stroke-width="2" fill="none"></path></g><g transform="translate(275.367 63) rotate(0 33.73599999999999 24.5)"><path d="M50.69 24.13 C55.93 31.9, 61.17 39.67, 67.47 49 M50.69 24.13 C54.66 30.01, 58.62 35.89, 67.47 49" stroke="black" stroke-width="2" fill="none"></path></g></g><mask></mask><g stroke-linecap="round"><g transform="translate(555.102 63) rotate(0 -33.73599999999999 24.5)"><path d="M0 0 C-11.25 8.17, -56.23 40.83, -67.47 49 M0 0 C-11.25 8.17, -56.23 40.83, -67.47 49" stroke="black" stroke-width="2" fill="none"></path></g><g transform="translate(555.102 63) rotate(0 -33.73599999999999 24.5)"><path d="M-50.69 24.13 C-56.03 32.05, -61.38 39.97, -67.47 49 M-50.69 24.13 C-55.4 31.12, -60.12 38.1, -67.47 49" stroke="black" stroke-width="2" fill="none"></path></g><g transform="translate(555.102 63) rotate(0 -33.73599999999999 24.5)"><path d="M-38.63 40.74 C-47.81 43.37, -57 46, -67.47 49 M-38.63 40.74 C-46.73 43.06, -54.83 45.38, -67.47 49" stroke="black" stroke-width="2" fill="none"></path></g></g><mask></mask><g stroke-linecap="round"><g transform="translate(415.234 165.5) rotate(0 0 24.5)"><path d="M0 0 C0 8.17, 0 40.83, 0 49 M0 0 C0 8.17, 0 40.83, 0 49" stroke="black" stroke-width="2" fill="none"></path></g><g transform="translate(415.234 165.5) rotate(0 0 24.5)"><path d="M-8.38 25.98 C-5.26 34.54, -2.14 43.11, 0 49 M-8.38 25.98 C-6.04 32.41, -3.7 38.84, 0 49" stroke="black" stroke-width="2" fill="none"></path></g><g transform="translate(415.234 165.5) rotate(0 0 24.5)"><path d="M8.38 25.98 C5.26 34.54, 2.14 43.11, 0 49 M8.38 25.98 C6.04 32.41, 3.7 38.84, 0 49" stroke="black" stroke-width="2" fill="none"></path></g></g><mask></mask><g stroke-linecap="round"><g transform="translate(113.977 473) rotate(0 0 24.5)"><path d="M0 0 C0 8.17, 0 40.83, 0 49 M0 0 C0 8.17, 0 40.83, 0 49" stroke="black" stroke-width="2" fill="none"></path></g><g transform="translate(113.977 473) rotate(0 0 24.5)"><path d="M-8.38 25.98 C-5.91 32.76, -3.44 39.55, 0 49 M-8.38 25.98 C-6.25 31.83, -4.12 37.68, 0 49" stroke="black" stroke-width="2" fill="none"></path></g><g transform="translate(113.977 473) rotate(0 0 24.5)"><path d="M8.38 25.98 C5.91 32.76, 3.44 39.55, 0 49 M8.38 25.98 C6.25 31.83, 4.12 37.68, 0 49" stroke="black" stroke-width="2" fill="none"></path></g></g><mask></mask><g stroke-linecap="round"><g transform="translate(113.977 575.5) rotate(0 0 24.5)"><path d="M0 0 C0 8.17, 0 40.83, 0 49 M0 0 C0 8.17, 0 40.83, 0 49" stroke="black" stroke-width="2" fill="none"></path></g><g transform="translate(113.977 575.5) rotate(0 0 24.5)"><path d="M-8.38 25.98 C-5.61 33.58, -2.85 41.18, 0 49 M-8.38 25.98 C-6.47 31.23, -4.55 36.49, 0 49" stroke="black" stroke-width="2" fill="none"></path></g><g transform="translate(113.977 575.5) rotate(0 0 24.5)"><path d="M8.38 25.98 C5.61 33.58, 2.85 41.18, 0 49 M8.38 25.98 C6.47 31.23, 4.55 36.49, 0 49" stroke="black" stroke-width="2" fill="none"></path></g></g><mask></mask><g stroke-linecap="round"><g transform="translate(660.2339999999999 478) rotate(0 0 24.75)"><path d="M0 0 C0 8.25, 0 41.25, 0 49.5 M0 0 C0 8.25, 0 41.25, 0 49.5" stroke="black" stroke-width="2" fill="none"></path></g><g transform="translate(660.2339999999999 478) rotate(0 0 24.75)"><path d="M-8.46 26.24 C-6.1 32.74, -3.74 39.23, 0 49.5 M-8.46 26.24 C-6.59 31.38, -4.72 36.52, 0 49.5" stroke="black" stroke-width="2" fill="none"></path></g><g transform="translate(660.2339999999999 478) rotate(0 0 24.75)"><path d="M8.46 26.24 C6.1 32.74, 3.74 39.23, 0 49.5 M8.46 26.24 C6.59 31.38, 4.72 36.52, 0 49.5" stroke="black" stroke-width="2" fill="none"></path></g></g><mask></mask><g stroke-linecap="round"><g transform="translate(660.2339999999999 582) rotate(0 0 24)"><path d="M0 0 C0 8, 0 40, 0 48 M0 0 C0 8, 0 40, 0 48" stroke="black" stroke-width="2" fill="none"></path></g><g transform="translate(660.2339999999999 582) rotate(0 0 24)"><path d="M-8.21 25.45 C-5.96 31.64, -3.7 37.83, 0 48 M-8.21 25.45 C-5.62 32.56, -3.03 39.68, 0 48" stroke="black" stroke-width="2" fill="none"></path></g><g transform="translate(660.2339999999999 582) rotate(0 0 24)"><path d="M8.21 25.45 C5.96 31.64, 3.7 37.83, 0 48 M8.21 25.45 C5.62 32.56, 3.03 39.68, 0 48" stroke="black" stroke-width="2" fill="none"></path></g></g><mask></mask><g stroke-linecap="round"><g transform="translate(409.91217077813803 766.5) rotate(0 0.187810829692296 13.75)"><path d="M0 0 C0.06 4.58, 0.31 22.92, 0.38 27.5 M0 0 C0.06 4.58, 0.31 22.92, 0.38 27.5" stroke="black" stroke-width="2" fill="none"></path></g><g transform="translate(409.91217077813803 766.5) rotate(0 0.187810829692296 13.75)"><path d="M-4.5 14.64 C-3.33 17.75, -2.15 20.85, 0.38 27.5 M-4.5 14.64 C-3.37 17.62, -2.24 20.6, 0.38 27.5" stroke="black" stroke-width="2" fill="none"></path></g><g transform="translate(409.91217077813803 766.5) rotate(0 0.187810829692296 13.75)"><path d="M4.9 14.51 C3.81 17.65, 2.72 20.79, 0.38 27.5 M4.9 14.51 C3.85 17.52, 2.8 20.53, 0.38 27.5" stroke="black" stroke-width="2" fill="none"></path></g></g><mask></mask><g stroke-linecap="round"><g transform="translate(410.96036425211327 848.5) rotate(0 0.19668467292018477 17.500000000000057)"><path d="M0 0 C0.07 5.83, 0.33 29.17, 0.39 35 M0 0 C0.07 5.83, 0.33 29.17, 0.39 35" stroke="black" stroke-width="2" fill="none"></path></g><g transform="translate(410.96036425211327 848.5) rotate(0 0.19668467292018477 17.500000000000057)"><path d="M-5.78 18.62 C-3.8 23.87, -1.83 29.11, 0.39 35 M-5.78 18.62 C-3.45 24.8, -1.13 30.97, 0.39 35" stroke="black" stroke-width="2" fill="none"></path></g><g transform="translate(410.96036425211327 848.5) rotate(0 0.19668467292018477 17.500000000000057)"><path d="M6.19 18.49 C4.34 23.77, 2.48 29.06, 0.39 35 M6.19 18.49 C4.01 24.71, 1.82 30.94, 0.39 35" stroke="black" stroke-width="2" fill="none"></path></g></g><mask></mask><g stroke-linecap="round"><g transform="translate(411.71078887500835 938) rotate(0 -0.3059771121152437 19)"><path d="M0 0 C-0.1 6.33, -0.51 31.67, -0.61 38 M0 0 C-0.1 6.33, -0.51 31.67, -0.61 38" stroke="black" stroke-width="2" fill="none"></path></g><g transform="translate(411.71078887500835 938) rotate(0 -0.3059771121152437 19)"><path d="M-6.82 20.04 C-5.45 24.01, -4.08 27.98, -0.61 38 M-6.82 20.04 C-4.83 25.82, -2.83 31.59, -0.61 38" stroke="black" stroke-width="2" fill="none"></path></g><g transform="translate(411.71078887500835 938) rotate(0 -0.3059771121152437 19)"><path d="M6.17 20.25 C4.67 24.17, 3.17 28.1, -0.61 38 M6.17 20.25 C3.99 25.96, 1.81 31.66, -0.61 38" stroke="black" stroke-width="2" fill="none"></path></g></g><mask></mask><g transform="translate(362.9833984375 127.25) rotate(0 52.2509765625 11.5)"><text x="52.2509765625" y="0" font-family="Helvetica, Segoe UI Emoji" font-size="20px" fill="#1e1e1e" text-anchor="middle" style="white-space: pre;" direction="ltr" dominant-baseline="text-before-edge">Initialization</text></g><g transform="translate(193.1533203125 24.75) rotate(0 81.7138671875 11.5)"><text x="81.7138671875" y="0" font-family="Helvetica, Segoe UI Emoji" font-size="20px" fill="#1e1e1e" text-anchor="middle" style="white-space: pre;" direction="ltr" dominant-baseline="text-before-edge">Initialize Database</text></g><g transform="translate(465.181640625 24.75) rotate(0 90.419921875 11.5)"><text x="90.419921875" y="0" font-family="Helvetica, Segoe UI Emoji" font-size="20px" fill="#1e1e1e" text-anchor="middle" style="white-space: pre;" direction="ltr" dominant-baseline="text-before-edge">Set Global Variables</text></g><g transform="translate(353.544921875 229.75) rotate(0 61.689453125 11.5)"><text x="61.689453125" y="0" font-family="Helvetica, Segoe UI Emoji" font-size="20px" fill="#1e1e1e" text-anchor="middle" style="white-space: pre;" direction="ltr" dominant-baseline="text-before-edge">Parallel Tasks</text></g><g transform="translate(147.90234375 332.25) rotate(0 105.05859375 11.5)"><text x="105.05859375" y="0" font-family="Helvetica, Segoe UI Emoji" font-size="20px" fill="#1e1e1e" text-anchor="middle" style="white-space: pre;" direction="ltr" dominant-baseline="text-before-edge">Update Items Database</text></g><g transform="translate(52.2822265625 434.75) rotate(0 61.6943359375 11.5)"><text x="61.6943359375" y="0" font-family="Helvetica, Segoe UI Emoji" font-size="20px" fill="#1e1e1e" text-anchor="middle" style="white-space: pre;" direction="ltr" dominant-baseline="text-before-edge">Fetch Listings</text></g><g transform="translate(36.7255859375 537.25) rotate(0 77.2509765625 11.5)"><text x="77.2509765625" y="0" font-family="Helvetica, Segoe UI Emoji" font-size="20px" fill="#1e1e1e" text-anchor="middle" style="white-space: pre;" direction="ltr" dominant-baseline="text-before-edge">Parse Items Data</text></g><g transform="translate(35.6171875 639.75) rotate(0 78.359375 11.5)"><text x="78.359375" y="0" font-family="Helvetica, Segoe UI Emoji" font-size="20px" fill="#1e1e1e" text-anchor="middle" style="white-space: pre;" direction="ltr" dominant-baseline="text-before-edge">Store Items in DB</text></g><g transform="translate(470.2275390625 333.25) rotate(0 107.2802734375 11.5)"><text x="107.2802734375" y="0" font-family="Helvetica, Segoe UI Emoji" font-size="20px" fill="#1e1e1e" text-anchor="middle" style="white-space: pre;" direction="ltr" dominant-baseline="text-before-edge">Update Gems Database</text></g><g transform="translate(586.875 441.75) rotate(0 73.359375 11.5)"><text x="73.359375" y="0" font-family="Helvetica, Segoe UI Emoji" font-size="20px" fill="#1e1e1e" text-anchor="middle" style="white-space: pre;" direction="ltr" dominant-baseline="text-before-edge">Fetch Gem Data</text></g><g transform="translate(580.76171875 543.25) rotate(0 79.47265625 11.5)"><text x="79.47265625" y="0" font-family="Helvetica, Segoe UI Emoji" font-size="20px" fill="#1e1e1e" text-anchor="middle" style="white-space: pre;" direction="ltr" dominant-baseline="text-before-edge">Parse Gems Data</text></g><g transform="translate(579.6533203125 645.75) rotate(0 80.5810546875 11.5)"><text x="80.5810546875" y="0" font-family="Helvetica, Segoe UI Emoji" font-size="20px" fill="#1e1e1e" text-anchor="middle" style="white-space: pre;" direction="ltr" dominant-baseline="text-before-edge">Store Gems in DB</text></g><g transform="translate(326.5029296875 727.75) rotate(0 81.1572265625 11.5)"><text x="81.1572265625" y="0" font-family="Helvetica, Segoe UI Emoji" font-size="20px" fill="#1e1e1e" text-anchor="middle" style="white-space: pre;" direction="ltr" dominant-baseline="text-before-edge">Signal Completion</text></g><g transform="translate(345.630859375 809.75) rotate(0 65.029296875 11.5)"><text x="65.029296875" y="0" font-family="Helvetica, Segoe UI Emoji" font-size="20px" fill="#1e1e1e" text-anchor="middle" style="white-space: pre;" direction="ltr" dominant-baseline="text-before-edge">Compare Data</text></g><g transform="translate(277.138671875 899.25) rotate(0 134.521484375 11.5)"><text x="134.521484375" y="0" font-family="Helvetica, Segoe UI Emoji" font-size="20px" fill="#1e1e1e" text-anchor="middle" style="white-space: pre;" direction="ltr" dominant-baseline="text-before-edge">Update Comparison Database</text></g><g transform="translate(358.9658203125 991.75) rotate(0 51.6943359375 11.5)"><text x="51.6943359375" y="0" font-family="Helvetica, Segoe UI Emoji" font-size="20px" fill="#1e1e1e" text-anchor="middle" style="white-space: pre;" direction="ltr" dominant-baseline="text-before-edge">Send Alerts</text></g><g stroke-linecap="round"><g transform="translate(161.673828125 372.25) rotate(0 -22.25 22.25)"><path d="M0 0 C-7.42 7.42, -37.08 37.08, -44.5 44.5 M0 0 C-7.42 7.42, -37.08 37.08, -44.5 44.5" stroke="#1e1e1e" stroke-width="2" fill="none"></path></g><g transform="translate(161.673828125 372.25) rotate(0 -22.25 22.25)"><path d="M-31.82 17.31 C-35.57 25.34, -39.31 33.37, -44.5 44.5 M-31.82 17.31 C-34.44 22.93, -37.06 28.55, -44.5 44.5" stroke="#1e1e1e" stroke-width="2" fill="none"></path></g><g transform="translate(161.673828125 372.25) rotate(0 -22.25 22.25)"><path d="M-17.31 31.82 C-25.34 35.57, -33.37 39.31, -44.5 44.5 M-17.31 31.82 C-22.93 34.44, -28.55 37.06, -44.5 44.5" stroke="#1e1e1e" stroke-width="2" fill="none"></path></g></g><mask></mask><g stroke-linecap="round"><g transform="translate(604.6601252726534 372) rotate(0 25.546946682584917 26.62500000000003)"><path d="M0 0 C8.52 8.88, 42.58 44.38, 51.09 53.25 M0 0 C8.52 8.88, 42.58 44.38, 51.09 53.25" stroke="#1e1e1e" stroke-width="2" fill="none"></path></g><g transform="translate(604.6601252726534 372) rotate(0 25.546946682584917 26.62500000000003)"><path d="M24.17 40.01 C33.61 44.65, 43.04 49.29, 51.09 53.25 M24.17 40.01 C31.04 43.39, 37.91 46.77, 51.09 53.25" stroke="#1e1e1e" stroke-width="2" fill="none"></path></g><g transform="translate(604.6601252726534 372) rotate(0 25.546946682584917 26.62500000000003)"><path d="M38.98 25.8 C43.23 35.42, 47.47 45.04, 51.09 53.25 M38.98 25.8 C42.07 32.81, 45.16 39.81, 51.09 53.25" stroke="#1e1e1e" stroke-width="2" fill="none"></path></g></g><mask></mask><g stroke-linecap="round"><g transform="translate(561.673828125 682.25) rotate(0 -22.5 15.5)"><path d="M0 0 C-7.5 5.17, -37.5 25.83, -45 31 M0 0 C-7.5 5.17, -37.5 25.83, -45 31" stroke="#1e1e1e" stroke-width="2" fill="none"></path></g><g transform="translate(561.673828125 682.25) rotate(0 -22.5 15.5)"><path d="M-29.16 8.74 C-34.98 16.92, -40.8 25.09, -45 31 M-29.16 8.74 C-35.11 17.1, -41.06 25.46, -45 31" stroke="#1e1e1e" stroke-width="2" fill="none"></path></g><g transform="translate(561.673828125 682.25) rotate(0 -22.5 15.5)"><path d="M-18.56 24.13 C-28.27 26.65, -37.98 29.18, -45 31 M-18.56 24.13 C-28.49 26.71, -38.42 29.29, -45 31" stroke="#1e1e1e" stroke-width="2" fill="none"></path></g></g><mask></mask><g stroke-linecap="round"><g transform="translate(216.673828125 678.25) rotate(0 41 17.5)"><path d="M0 0 C13.67 5.83, 68.33 29.17, 82 35 M0 0 C13.67 5.83, 68.33 29.17, 82 35" stroke="#1e1e1e" stroke-width="2" fill="none"></path></g><g transform="translate(216.673828125 678.25) rotate(0 41 17.5)"><path d="M52.04 33.37 C58.2 33.71, 64.36 34.04, 82 35 M52.04 33.37 C58.29 33.71, 64.53 34.05, 82 35" stroke="#1e1e1e" stroke-width="2" fill="none"></path></g><g transform="translate(216.673828125 678.25) rotate(0 41 17.5)"><path d="M60.1 14.5 C64.6 18.71, 69.11 22.93, 82 35 M60.1 14.5 C64.66 18.77, 69.23 23.04, 82 35" stroke="#1e1e1e" stroke-width="2" fill="none"></path></g></g><mask></mask><g stroke-linecap="round"><g transform="translate(481.673828125 1002.25) rotate(0 215.5 0)"><path d="M0 0 C71.83 0, 359.17 0, 431 0 M0 0 C71.83 0, 359.17 0, 431 0" stroke="#1e1e1e" stroke-width="2" fill="none"></path></g></g><mask></mask><g stroke-linecap="round"><g transform="translate(912.673828125 1003.25) rotate(0 0 -381.5)"><path d="M0 0 C0 -127.17, 0 -635.83, 0 -763 M0 0 C0 -127.17, 0 -635.83, 0 -763" stroke="#1e1e1e" stroke-width="2" fill="none"></path></g></g><mask></mask><g stroke-linecap="round"><g transform="translate(911.673828125 239.25) rotate(0 -206.5 0)"><path d="M0 0 C-68.83 0, -344.17 0, -413 0 M0 0 C-68.83 0, -344.17 0, -413 0" stroke="#1e1e1e" stroke-width="2" fill="none"></path></g><g transform="translate(911.673828125 239.25) rotate(0 -206.5 0)"><path d="M-384.81 -10.26 C-394.19 -6.85, -403.57 -3.43, -413 0 M-384.81 -10.26 C-395.98 -6.2, -407.14 -2.13, -413 0" stroke="#1e1e1e" stroke-width="2" fill="none"></path></g><g transform="translate(911.673828125 239.25) rotate(0 -206.5 0)"><path d="M-384.81 10.26 C-394.19 6.85, -403.57 3.43, -413 0 M-384.81 10.26 C-395.98 6.2, -407.14 2.13, -413 0" stroke="#1e1e1e" stroke-width="2" fill="none"></path></g></g><mask></mask><g stroke-linecap="round"><g transform="translate(332.673828125 267.25) rotate(0 -40.29182389825159 23.262495373796554)"><path d="M0 0 C-13.43 7.75, -67.15 38.77, -80.58 46.52 M0 0 C-13.43 7.75, -67.15 38.77, -80.58 46.52" stroke="#1e1e1e" stroke-width="2" fill="none"></path></g><g transform="translate(332.673828125 267.25) rotate(0 -40.29182389825159 23.262495373796554)"><path d="M-61.3 23.54 C-69.01 32.73, -76.72 41.92, -80.58 46.52 M-61.3 23.54 C-67.84 31.34, -74.38 39.13, -80.58 46.52" stroke="#1e1e1e" stroke-width="2" fill="none"></path></g><g transform="translate(332.673828125 267.25) rotate(0 -40.29182389825159 23.262495373796554)"><path d="M-51.04 41.32 C-62.85 43.4, -74.66 45.48, -80.58 46.52 M-51.04 41.32 C-61.06 43.08, -71.08 44.85, -80.58 46.52" stroke="#1e1e1e" stroke-width="2" fill="none"></path></g></g><mask></mask><g stroke-linecap="round"><g transform="translate(497.673828125 268.25) rotate(0 23.5 23.5)"><path d="M0 0 C7.83 7.83, 39.17 39.17, 47 47 M0 0 C7.83 7.83, 39.17 39.17, 47 47" stroke="#1e1e1e" stroke-width="2" fill="none"></path></g><g transform="translate(497.673828125 268.25) rotate(0 23.5 23.5)"><path d="M19.81 34.32 C29.46 38.82, 39.11 43.32, 47 47 M19.81 34.32 C26.55 37.46, 33.29 40.61, 47 47" stroke="#1e1e1e" stroke-width="2" fill="none"></path></g><g transform="translate(497.673828125 268.25) rotate(0 23.5 23.5)"><path d="M34.32 19.81 C38.82 29.46, 43.32 39.11, 47 47 M34.32 19.81 C37.46 26.55, 40.61 33.29, 47 47" stroke="#1e1e1e" stroke-width="2" fill="none"></path></g></g><mask></mask></svg>